<?xml version="1.0" encoding="UTF-8" standalone="no"?>
<!DOCTYPE svg PUBLIC "-//W3C//DTD SVG 1.1//EN"
 "http://www.w3.org/Graphics/SVG/1.1/DTD/svg11.dtd">
<!-- Generated by graphviz version 9.0.0 (20230911.1827)
 -->
<!-- Title: g Pages: 1 -->
<svg width="700pt" height="307pt"
 viewBox="0.00 0.00 700.19 307.25" xmlns="http://www.w3.org/2000/svg" xmlns:xlink="http://www.w3.org/1999/xlink">
<g id="graph0" class="graph" transform="scale(1 1) rotate(0) translate(4 303.25)">
<title>g</title>
<polygon fill="white" stroke="none" points="-4,4 -4,-303.25 696.19,-303.25 696.19,4 -4,4"/>
<!-- S5 -->
<g id="node1" class="node">
<title>S5</title>
<ellipse fill="none" stroke="black" cx="138.19" cy="-193.5" rx="27" ry="18"/>
<text text-anchor="middle" x="138.19" y="-188.07" font-family="Times New Roman,serif" font-size="14.00">S5</text>
</g>
<!-- S5&#45;&gt;S5 -->
<g id="edge1" class="edge">
<title>S5&#45;&gt;S5</title>
<path fill="none" stroke="black" d="M162.72,-201.6C173.7,-202.37 183.19,-199.67 183.19,-193.5 183.19,-189.64 179.48,-187.14 174.02,-186"/>
<polygon fill="black" stroke="black" points="174.4,-182.51 164.23,-185.48 174.04,-189.5 174.4,-182.51"/>
<text text-anchor="middle" x="231.19" y="-188.07" font-family="Times New Roman,serif" font-size="14.00">setRGB|true|false</text>
</g>
<!-- S7 -->
<g id="node3" class="node">
<title>S7</title>
<ellipse fill="none" stroke="black" cx="261.19" cy="-105.75" rx="27" ry="18"/>
<text text-anchor="middle" x="261.19" y="-100.33" font-family="Times New Roman,serif" font-size="14.00">S7</text>
</g>
<!-- S5&#45;&gt;S7 -->
<g id="edge15" class="edge">
<title>S5&#45;&gt;S7</title>
<path fill="none" stroke="black" d="M160.49,-182.89C174.2,-176.54 191.83,-167.54 206.19,-157.5 218.05,-149.21 230,-138.52 239.72,-129.1"/>
<polygon fill="black" stroke="black" points="241.93,-131.84 246.55,-122.3 236.99,-126.87 241.93,-131.84"/>
<text text-anchor="middle" x="287.82" y="-144.2" font-family="Times New Roman,serif" font-size="14.00">setBrightness|true|false</text>
</g>
<!-- S1 -->
<g id="node6" class="node">
<title>S1</title>
<ellipse fill="none" stroke="black" cx="65.19" cy="-105.75" rx="27" ry="18"/>
<text text-anchor="middle" x="65.19" y="-100.33" font-family="Times New Roman,serif" font-size="14.00">S1</text>
</g>
<!-- S5&#45;&gt;S1 -->
<g id="edge9" class="edge">
<title>S5&#45;&gt;S1</title>
<path fill="none" stroke="black" d="M111.45,-189.38C76.16,-184.64 16.97,-174.37 3.94,-157.5 -7.78,-142.33 11.22,-128.69 31.06,-119.38"/>
<polygon fill="black" stroke="black" points="32.19,-122.71 39.98,-115.53 29.41,-116.29 32.19,-122.71"/>
<text text-anchor="middle" x="50.32" y="-144.2" font-family="Times New Roman,serif" font-size="14.00">turnOff|true|false</text>
</g>
<!-- S3 -->
<g id="node2" class="node">
<title>S3</title>
<ellipse fill="none" stroke="black" cx="260.19" cy="-18" rx="27" ry="18"/>
<text text-anchor="middle" x="260.19" y="-12.57" font-family="Times New Roman,serif" font-size="14.00">S3</text>
</g>
<!-- S3&#45;&gt;S7 -->
<g id="edge2" class="edge">
<title>S3&#45;&gt;S7</title>
<path fill="none" stroke="black" d="M278.32,-31.55C285.29,-37.46 292.46,-45.17 296.19,-54 300.74,-64.76 295.05,-75.57 287.02,-84.43"/>
<polygon fill="black" stroke="black" points="284.75,-81.76 279.96,-91.21 289.6,-86.81 284.75,-81.76"/>
<text text-anchor="middle" x="342.19" y="-56.45" font-family="Times New Roman,serif" font-size="14.00">turnOn|true|false</text>
</g>
<!-- S7&#45;&gt;S3 -->
<g id="edge10" class="edge">
<title>S7&#45;&gt;S3</title>
<path fill="none" stroke="black" d="M236.78,-97.54C223.36,-92.2 207.87,-83.41 199.94,-69.75 190.72,-53.86 207.78,-40.66 226.07,-31.72"/>
<polygon fill="black" stroke="black" points="227.4,-34.96 235.11,-27.69 224.55,-28.56 227.4,-34.96"/>
<text text-anchor="middle" x="245.32" y="-56.45" font-family="Times New Roman,serif" font-size="14.00">turnOff|true|false</text>
</g>
<!-- S7&#45;&gt;S7 -->
<g id="edge6" class="edge">
<title>S7&#45;&gt;S7</title>
<path fill="none" stroke="black" d="M287.99,-109.85C297.97,-109.99 306.19,-108.62 306.19,-105.75 306.19,-104.09 303.44,-102.93 299.2,-102.28"/>
<polygon fill="black" stroke="black" points="299.68,-98.8 289.5,-101.73 299.28,-105.79 299.68,-98.8"/>
<text text-anchor="middle" x="368.82" y="-100.33" font-family="Times New Roman,serif" font-size="14.00">setBrightness|true|false</text>
</g>
<!-- S7&#45;&gt;S7 -->
<g id="edge14" class="edge">
<title>S7&#45;&gt;S7</title>
<path fill="none" stroke="black" d="M287.18,-111.04C336.2,-116.27 431.44,-114.51 431.44,-105.75 431.44,-97.62 349.47,-95.52 298.47,-99.44"/>
<polygon fill="black" stroke="black" points="298.33,-95.94 288.68,-100.33 298.96,-102.91 298.33,-95.94"/>
<text text-anchor="middle" x="479.44" y="-100.33" font-family="Times New Roman,serif" font-size="14.00">setRGB|true|false</text>
</g>
<!-- S4 -->
<g id="node4" class="node">
<title>S4</title>
<ellipse fill="none" stroke="black" cx="326.19" cy="-281.25" rx="27" ry="18"/>
<text text-anchor="middle" x="326.19" y="-275.82" font-family="Times New Roman,serif" font-size="14.00">S4</text>
</g>
<!-- S4&#45;&gt;S5 -->
<g id="edge3" class="edge">
<title>S4&#45;&gt;S5</title>
<path fill="none" stroke="black" d="M298.78,-280.87C264.48,-280.28 205.5,-274.58 166.19,-245.25 158.28,-239.35 152.32,-230.51 147.98,-221.86"/>
<polygon fill="black" stroke="black" points="151.3,-220.74 144.07,-213 144.9,-223.56 151.3,-220.74"/>
<text text-anchor="middle" x="214.19" y="-231.95" font-family="Times New Roman,serif" font-size="14.00">setRGB|true|false</text>
</g>
<!-- S0 -->
<g id="node5" class="node">
<title>S0</title>
<ellipse fill="none" stroke="black" cx="354.19" cy="-193.5" rx="27" ry="18"/>
<text text-anchor="middle" x="354.19" y="-188.07" font-family="Times New Roman,serif" font-size="14.00">S0</text>
</g>
<!-- S4&#45;&gt;S0 -->
<g id="edge4" class="edge">
<title>S4&#45;&gt;S0</title>
<path fill="none" stroke="black" d="M303.08,-271.41C282.84,-262.26 258.33,-246.89 269.94,-229.5 280.4,-213.83 299.33,-205.17 316.6,-200.38"/>
<polygon fill="black" stroke="black" points="317.21,-203.83 326.13,-198.11 315.59,-197.02 317.21,-203.83"/>
<text text-anchor="middle" x="315.32" y="-231.95" font-family="Times New Roman,serif" font-size="14.00">turnOff|true|false</text>
</g>
<!-- S6 -->
<g id="node7" class="node">
<title>S6</title>
<ellipse fill="none" stroke="black" cx="500.19" cy="-193.5" rx="27" ry="18"/>
<text text-anchor="middle" x="500.19" y="-188.07" font-family="Times New Roman,serif" font-size="14.00">S6</text>
</g>
<!-- S4&#45;&gt;S6 -->
<g id="edge11" class="edge">
<title>S4&#45;&gt;S6</title>
<path fill="none" stroke="black" d="M353.17,-277.97C381.3,-274.52 425.74,-266.02 458.19,-245.25 468.34,-238.75 477.25,-229 484.23,-219.78"/>
<polygon fill="black" stroke="black" points="486.98,-221.95 489.89,-211.76 481.26,-217.91 486.98,-221.95"/>
<text text-anchor="middle" x="537.82" y="-231.95" font-family="Times New Roman,serif" font-size="14.00">setBrightness|true|false</text>
</g>
<!-- S0&#45;&gt;S4 -->
<g id="edge7" class="edge">
<title>S0&#45;&gt;S4</title>
<path fill="none" stroke="black" d="M361.23,-211.05C364.5,-221.25 366.77,-234.4 362.19,-245.25 359.92,-250.63 356.37,-255.6 352.36,-259.99"/>
<polygon fill="black" stroke="black" points="350.21,-257.21 345.41,-266.65 355.05,-262.26 350.21,-257.21"/>
<text text-anchor="middle" x="409.19" y="-231.95" font-family="Times New Roman,serif" font-size="14.00">turnOn|true|false</text>
</g>
<!-- S1&#45;&gt;S5 -->
<g id="edge5" class="edge">
<title>S1&#45;&gt;S5</title>
<path fill="none" stroke="black" d="M80.32,-120.95C86.67,-127.14 94,-134.61 100.19,-141.75 107.31,-149.97 114.6,-159.4 120.86,-167.89"/>
<polygon fill="black" stroke="black" points="117.84,-169.69 126.54,-175.73 123.51,-165.58 117.84,-169.69"/>
<text text-anchor="middle" x="157.19" y="-144.2" font-family="Times New Roman,serif" font-size="14.00">turnOn|true|false</text>
</g>
<!-- S6&#45;&gt;S7 -->
<g id="edge12" class="edge">
<title>S6&#45;&gt;S7</title>
<path fill="none" stroke="black" d="M475.81,-185.04C454.01,-178.25 421.28,-167.75 393.19,-157.5 375.63,-151.09 371.61,-148.54 354.19,-141.75 334.72,-134.15 312.85,-125.91 295.21,-119.33"/>
<polygon fill="black" stroke="black" points="296.57,-116.1 285.98,-115.9 294.13,-122.67 296.57,-116.1"/>
<text text-anchor="middle" x="441.19" y="-144.2" font-family="Times New Roman,serif" font-size="14.00">setRGB|true|false</text>
</g>
<!-- S6&#45;&gt;S6 -->
<g id="edge8" class="edge">
<title>S6&#45;&gt;S6</title>
<path fill="none" stroke="black" d="M524.72,-201.6C535.7,-202.37 545.19,-199.67 545.19,-193.5 545.19,-189.64 541.48,-187.14 536.02,-186"/>
<polygon fill="black" stroke="black" points="536.4,-182.51 526.23,-185.48 536.04,-189.5 536.4,-182.51"/>
<text text-anchor="middle" x="607.82" y="-188.07" font-family="Times New Roman,serif" font-size="14.00">setBrightness|true|false</text>
</g>
<!-- S2 -->
<g id="node8" class="node">
<title>S2</title>
<ellipse fill="none" stroke="black" cx="603.19" cy="-105.75" rx="27" ry="18"/>
<text text-anchor="middle" x="603.19" y="-100.33" font-family="Times New Roman,serif" font-size="14.00">S2</text>
</g>
<!-- S6&#45;&gt;S2 -->
<g id="edge16" class="edge">
<title>S6&#45;&gt;S2</title>
<path fill="none" stroke="black" d="M494.88,-175.42C492.67,-164.76 492,-151.31 498.94,-141.75 514.11,-120.85 529.71,-131.98 554.19,-123.75 559.03,-122.12 564.12,-120.38 569.12,-118.66"/>
<polygon fill="black" stroke="black" points="570.06,-122.04 578.36,-115.46 567.77,-115.43 570.06,-122.04"/>
<text text-anchor="middle" x="544.32" y="-144.2" font-family="Times New Roman,serif" font-size="14.00">turnOff|true|false</text>
</g>
<!-- S2&#45;&gt;S6 -->
<g id="edge13" class="edge">
<title>S2&#45;&gt;S6</title>
<path fill="none" stroke="black" d="M604.64,-124.05C604.61,-134.79 602.77,-148.26 595.19,-157.5 581.21,-174.54 558.13,-183.28 538.23,-187.77"/>
<polygon fill="black" stroke="black" points="537.6,-184.33 528.45,-189.66 538.93,-191.2 537.6,-184.33"/>
<text text-anchor="middle" x="647.19" y="-144.2" font-family="Times New Roman,serif" font-size="14.00">turnOn|true|false</text>
</g>
</g>
</svg>
