<?xml version="1.0" encoding="UTF-8" standalone="no"?>
<!DOCTYPE svg PUBLIC "-//W3C//DTD SVG 1.1//EN"
 "http://www.w3.org/Graphics/SVG/1.1/DTD/svg11.dtd">
<!-- Generated by graphviz version 9.0.0 (20230911.1827)
 -->
<!-- Title: g Pages: 1 -->
<svg width="1675pt" height="1097pt"
 viewBox="0.00 0.00 1675.00 1097.00" xmlns="http://www.w3.org/2000/svg" xmlns:xlink="http://www.w3.org/1999/xlink">
<g id="graph0" class="graph" transform="scale(1 1) rotate(0) translate(4 1093)">
<title>g</title>
<polygon fill="white" stroke="none" points="-4,4 -4,-1093 1671,-1093 1671,4 -4,4"/>
<!-- S19 -->
<g id="node1" class="node">
<title>S19</title>
<ellipse fill="none" stroke="black" cx="151" cy="-807.75" rx="27" ry="18"/>
<text text-anchor="middle" x="151" y="-802.33" font-family="Times New Roman,serif" font-size="14.00">S19</text>
</g>
<!-- S16 -->
<g id="node2" class="node">
<title>S16</title>
<ellipse fill="none" stroke="black" cx="929" cy="-720" rx="27" ry="18"/>
<text text-anchor="middle" x="929" y="-714.58" font-family="Times New Roman,serif" font-size="14.00">S16</text>
</g>
<!-- S19&#45;&gt;S16 -->
<g id="edge1" class="edge">
<title>S19&#45;&gt;S16</title>
<path fill="none" stroke="black" d="M177.78,-803.8C293.98,-790.99 754.73,-740.21 890.91,-725.2"/>
<polygon fill="black" stroke="black" points="891.27,-728.68 900.83,-724.11 890.5,-721.72 891.27,-728.68"/>
<text text-anchor="middle" x="645.62" y="-758.45" font-family="Times New Roman,serif" font-size="14.00">stop|true|true</text>
</g>
<!-- S14 -->
<g id="node5" class="node">
<title>S14</title>
<ellipse fill="none" stroke="black" cx="320" cy="-193.5" rx="27" ry="18"/>
<text text-anchor="middle" x="320" y="-188.07" font-family="Times New Roman,serif" font-size="14.00">S14</text>
</g>
<!-- S19&#45;&gt;S14 -->
<g id="edge50" class="edge">
<title>S19&#45;&gt;S14</title>
<path fill="none" stroke="black" d="M151,-789.34C151,-772.02 151,-744.67 151,-721 151,-721 151,-721 151,-543.5 151,-520.93 145.1,-514.07 152.5,-492.75 165.58,-455.09 185.23,-454.78 206,-420.75 255.34,-339.9 255.59,-313.16 300,-229.5 301.54,-226.6 303.18,-223.59 304.85,-220.61"/>
<polygon fill="black" stroke="black" points="307.79,-222.51 309.68,-212.08 301.7,-219.05 307.79,-222.51"/>
<text text-anchor="middle" x="207.75" y="-495.2" font-family="Times New Roman,serif" font-size="14.00">closeDoor|true|false</text>
</g>
<!-- S9 -->
<g id="node20" class="node">
<title>S9</title>
<ellipse fill="none" stroke="black" cx="210" cy="-18" rx="27" ry="18"/>
<text text-anchor="middle" x="210" y="-12.57" font-family="Times New Roman,serif" font-size="14.00">S9</text>
</g>
<!-- S19&#45;&gt;S9 -->
<g id="edge44" class="edge">
<title>S19&#45;&gt;S9</title>
<path fill="none" stroke="black" d="M139.39,-791.23C128.22,-774.71 113,-747.38 113,-721 113,-721 113,-721 113,-104.75 113,-69.87 148.64,-45.77 176.71,-32.2"/>
<polygon fill="black" stroke="black" points="177.98,-35.46 185.63,-28.13 175.08,-29.09 177.98,-35.46"/>
<text text-anchor="middle" x="159.12" y="-407.45" font-family="Times New Roman,serif" font-size="14.00">turnOff|true|false</text>
</g>
<!-- S6 -->
<g id="node4" class="node">
<title>S6</title>
<ellipse fill="none" stroke="black" cx="675" cy="-632.25" rx="27" ry="18"/>
<text text-anchor="middle" x="675" y="-626.83" font-family="Times New Roman,serif" font-size="14.00">S6</text>
</g>
<!-- S16&#45;&gt;S6 -->
<g id="edge41" class="edge">
<title>S16&#45;&gt;S6</title>
<path fill="none" stroke="black" d="M921.06,-702.59C914.6,-691.07 904.37,-676.34 891,-668.25 861.78,-650.56 767.05,-640.46 713.25,-636.01"/>
<polygon fill="black" stroke="black" points="713.86,-632.54 703.62,-635.24 713.31,-639.52 713.86,-632.54"/>
<text text-anchor="middle" x="953.12" y="-670.7" font-family="Times New Roman,serif" font-size="14.00">turnOff|true|false</text>
</g>
<!-- S11 -->
<g id="node8" class="node">
<title>S11</title>
<ellipse fill="none" stroke="black" cx="1143" cy="-456.75" rx="27" ry="18"/>
<text text-anchor="middle" x="1143" y="-451.32" font-family="Times New Roman,serif" font-size="14.00">S11</text>
</g>
<!-- S16&#45;&gt;S11 -->
<g id="edge31" class="edge">
<title>S16&#45;&gt;S11</title>
<path fill="none" stroke="black" d="M955.64,-716.03C993.12,-711.3 1058.67,-700.84 1075,-684 1107.71,-650.28 1080.96,-624.84 1096.5,-580.5 1108.36,-546.64 1121.31,-542.42 1133,-508.5 1135.43,-501.45 1137.33,-493.64 1138.8,-486.3"/>
<polygon fill="black" stroke="black" points="1142.24,-486.92 1140.54,-476.46 1135.35,-485.7 1142.24,-486.92"/>
<text text-anchor="middle" x="1150.75" y="-582.95" font-family="Times New Roman,serif" font-size="14.00">closeDoor|true|false</text>
</g>
<!-- S7 -->
<g id="node3" class="node">
<title>S7</title>
<ellipse fill="none" stroke="black" cx="1191" cy="-193.5" rx="27" ry="18"/>
<text text-anchor="middle" x="1191" y="-188.07" font-family="Times New Roman,serif" font-size="14.00">S7</text>
</g>
<!-- S7&#45;&gt;S6 -->
<g id="edge2" class="edge">
<title>S7&#45;&gt;S6</title>
<path fill="none" stroke="black" d="M1173.8,-207.66C1165.37,-214.16 1155.09,-222.17 1146,-229.5 1090.1,-274.54 1078.03,-288.13 1022,-333 931.02,-405.86 878.85,-395.89 814,-492.75 787.49,-532.35 818.99,-561.87 786,-596.25 767.12,-615.92 737.31,-624.58 713.34,-628.37"/>
<polygon fill="black" stroke="black" points="713.06,-624.87 703.61,-629.67 713.98,-631.81 713.06,-624.87"/>
<text text-anchor="middle" x="940.62" y="-407.45" font-family="Times New Roman,serif" font-size="14.00">stop|true|true</text>
</g>
<!-- S17 -->
<g id="node9" class="node">
<title>S17</title>
<ellipse fill="none" stroke="black" cx="1234" cy="-281.25" rx="27" ry="18"/>
<text text-anchor="middle" x="1234" y="-275.82" font-family="Times New Roman,serif" font-size="14.00">S17</text>
</g>
<!-- S7&#45;&gt;S17 -->
<g id="edge7" class="edge">
<title>S7&#45;&gt;S17</title>
<path fill="none" stroke="black" d="M1171.91,-206.5C1158.34,-216.6 1143.99,-231.54 1153,-245.25 1162.78,-260.12 1180.36,-268.71 1196.66,-273.64"/>
<polygon fill="black" stroke="black" points="1195.59,-276.98 1206.16,-276.13 1197.37,-270.21 1195.59,-276.98"/>
<text text-anchor="middle" x="1198" y="-231.95" font-family="Times New Roman,serif" font-size="14.00">turnOn|true|false</text>
</g>
<!-- S2 -->
<g id="node12" class="node">
<title>S2</title>
<ellipse fill="none" stroke="black" cx="1324" cy="-105.75" rx="27" ry="18"/>
<text text-anchor="middle" x="1324" y="-100.33" font-family="Times New Roman,serif" font-size="14.00">S2</text>
</g>
<!-- S7&#45;&gt;S2 -->
<g id="edge32" class="edge">
<title>S7&#45;&gt;S2</title>
<path fill="none" stroke="black" d="M1186.77,-175.69C1185.1,-164.88 1185.05,-151.15 1192.5,-141.75 1204.1,-127.11 1251.54,-117.2 1286.12,-111.77"/>
<polygon fill="black" stroke="black" points="1286.42,-115.26 1295.79,-110.32 1285.38,-108.34 1286.42,-115.26"/>
<text text-anchor="middle" x="1246.75" y="-144.2" font-family="Times New Roman,serif" font-size="14.00">closeDoor|true|false</text>
</g>
<!-- S6&#45;&gt;S16 -->
<g id="edge20" class="edge">
<title>S6&#45;&gt;S16</title>
<path fill="none" stroke="black" d="M697.01,-643.02C721.94,-653.87 763.9,-671.5 801,-684 831.48,-694.27 866.79,-703.75 892.59,-710.24"/>
<polygon fill="black" stroke="black" points="891.71,-713.63 902.25,-712.64 893.39,-706.84 891.71,-713.63"/>
<text text-anchor="middle" x="846" y="-670.7" font-family="Times New Roman,serif" font-size="14.00">turnOn|true|false</text>
</g>
<!-- S1 -->
<g id="node7" class="node">
<title>S1</title>
<ellipse fill="none" stroke="black" cx="675" cy="-544.5" rx="27" ry="18"/>
<text text-anchor="middle" x="675" y="-539.08" font-family="Times New Roman,serif" font-size="14.00">S1</text>
</g>
<!-- S6&#45;&gt;S1 -->
<g id="edge8" class="edge">
<title>S6&#45;&gt;S1</title>
<path fill="none" stroke="black" d="M675,-613.9C675,-602.51 675,-587.34 675,-574.18"/>
<polygon fill="black" stroke="black" points="678.5,-574.34 675,-564.34 671.5,-574.34 678.5,-574.34"/>
<text text-anchor="middle" x="729.75" y="-582.95" font-family="Times New Roman,serif" font-size="14.00">closeDoor|true|false</text>
</g>
<!-- S14&#45;&gt;S19 -->
<g id="edge23" class="edge">
<title>S14&#45;&gt;S19</title>
<path fill="none" stroke="black" d="M314.06,-211.49C303.83,-242.29 284,-309.55 284,-368 284,-721 284,-721 284,-721 284,-766.88 227.39,-789.4 188.04,-799.5"/>
<polygon fill="black" stroke="black" points="187.35,-796.07 178.43,-801.79 188.97,-802.88 187.35,-796.07"/>
<text text-anchor="middle" x="338" y="-495.2" font-family="Times New Roman,serif" font-size="14.00">openDoor|true|false</text>
</g>
<!-- S4 -->
<g id="node6" class="node">
<title>S4</title>
<ellipse fill="none" stroke="black" cx="358" cy="-105.75" rx="27" ry="18"/>
<text text-anchor="middle" x="358" y="-100.33" font-family="Times New Roman,serif" font-size="14.00">S4</text>
</g>
<!-- S14&#45;&gt;S4 -->
<g id="edge3" class="edge">
<title>S14&#45;&gt;S4</title>
<path fill="none" stroke="black" d="M295.02,-186.66C267.03,-178.91 227.58,-163.61 243.75,-141.75 260.97,-118.46 293.39,-110.17 319.31,-107.44"/>
<polygon fill="black" stroke="black" points="319.48,-110.93 329.17,-106.66 318.93,-103.95 319.48,-110.93"/>
<text text-anchor="middle" x="290.12" y="-144.2" font-family="Times New Roman,serif" font-size="14.00">turnOff|true|false</text>
</g>
<!-- S14&#45;&gt;S11 -->
<g id="edge10" class="edge">
<title>S14&#45;&gt;S11</title>
<path fill="none" stroke="black" d="M342.76,-203.48C444.49,-243.58 855.16,-404.97 915,-420.75 980.41,-438 1058.76,-447.72 1104.5,-452.34"/>
<polygon fill="black" stroke="black" points="1104.15,-455.82 1114.44,-453.31 1104.83,-448.86 1104.15,-455.82"/>
<text text-anchor="middle" x="705.62" y="-319.7" font-family="Times New Roman,serif" font-size="14.00">stop|true|true</text>
</g>
<!-- S4&#45;&gt;S14 -->
<g id="edge19" class="edge">
<title>S4&#45;&gt;S14</title>
<path fill="none" stroke="black" d="M350.95,-123.24C346.67,-133.19 341.08,-146.1 336,-157.5 334.83,-160.12 333.61,-162.84 332.38,-165.56"/>
<polygon fill="black" stroke="black" points="329.31,-163.87 328.34,-174.42 335.68,-166.77 329.31,-163.87"/>
<text text-anchor="middle" x="388" y="-144.2" font-family="Times New Roman,serif" font-size="14.00">turnOn|true|false</text>
</g>
<!-- S4&#45;&gt;S1 -->
<g id="edge6" class="edge">
<title>S4&#45;&gt;S1</title>
<path fill="none" stroke="black" d="M384.13,-110.77C402.35,-115.08 425.38,-123.9 437,-141.75 496.81,-233.66 355.64,-291.76 410,-387 459.64,-473.97 578.63,-517.48 638.82,-534.55"/>
<polygon fill="black" stroke="black" points="637.67,-537.86 648.24,-537.12 639.51,-531.11 637.67,-537.86"/>
<text text-anchor="middle" x="436.62" y="-319.7" font-family="Times New Roman,serif" font-size="14.00">stop|true|true</text>
</g>
<!-- S4&#45;&gt;S9 -->
<g id="edge38" class="edge">
<title>S4&#45;&gt;S9</title>
<path fill="none" stroke="black" d="M361.32,-87.78C362.44,-76.9 361.79,-63.15 354,-54 340.43,-38.07 285.96,-28.25 248.05,-23.21"/>
<polygon fill="black" stroke="black" points="248.74,-19.77 238.38,-21.99 247.86,-26.72 248.74,-19.77"/>
<text text-anchor="middle" x="415" y="-56.45" font-family="Times New Roman,serif" font-size="14.00">openDoor|true|false</text>
</g>
<!-- S1&#45;&gt;S6 -->
<g id="edge33" class="edge">
<title>S1&#45;&gt;S6</title>
<path fill="none" stroke="black" d="M647.71,-545.5C621.23,-547.13 582.31,-554.24 563,-580.5 541.77,-609.38 596.58,-622.21 636.81,-627.62"/>
<polygon fill="black" stroke="black" points="636.36,-631.09 646.71,-628.83 637.21,-624.14 636.36,-631.09"/>
<text text-anchor="middle" x="617" y="-582.95" font-family="Times New Roman,serif" font-size="14.00">openDoor|true|false</text>
</g>
<!-- S1&#45;&gt;S11 -->
<g id="edge4" class="edge">
<title>S1&#45;&gt;S11</title>
<path fill="none" stroke="black" d="M702.39,-543.73C749.66,-543.25 848.87,-538.37 926,-508.5 937.55,-504.03 937.54,-497.45 949,-492.75 1000.33,-471.68 1064.45,-463.26 1104.57,-459.92"/>
<polygon fill="black" stroke="black" points="1104.75,-463.42 1114.46,-459.17 1104.22,-456.44 1104.75,-463.42"/>
<text text-anchor="middle" x="994" y="-495.2" font-family="Times New Roman,serif" font-size="14.00">turnOn|true|false</text>
</g>
<!-- S11&#45;&gt;S16 -->
<g id="edge25" class="edge">
<title>S11&#45;&gt;S16</title>
<path fill="none" stroke="black" d="M1158.57,-471.76C1184.2,-496.61 1230.48,-550.11 1210,-596.25 1186.42,-649.39 1165.05,-658.1 1113,-684 1066.43,-707.17 1006.22,-715.05 967.6,-717.7"/>
<polygon fill="black" stroke="black" points="967.63,-714.19 957.86,-718.28 968.05,-721.18 967.63,-714.19"/>
<text text-anchor="middle" x="1268" y="-582.95" font-family="Times New Roman,serif" font-size="14.00">openDoor|true|false</text>
</g>
<!-- S11&#45;&gt;S1 -->
<g id="edge46" class="edge">
<title>S11&#45;&gt;S1</title>
<path fill="none" stroke="black" d="M1115.77,-458.44C1060.9,-460.35 933.4,-467.38 829.75,-492.75 810.89,-497.37 807.35,-502.15 789,-508.5 762.89,-517.54 733.02,-526.67 710.41,-533.33"/>
<polygon fill="black" stroke="black" points="709.69,-529.9 701.08,-536.06 711.66,-536.61 709.69,-529.9"/>
<text text-anchor="middle" x="875.12" y="-495.2" font-family="Times New Roman,serif" font-size="14.00">turnOff|true|false</text>
</g>
<!-- S12 -->
<g id="node18" class="node">
<title>S12</title>
<ellipse fill="none" stroke="black" cx="1290" cy="-369" rx="27" ry="18"/>
<text text-anchor="middle" x="1290" y="-363.57" font-family="Times New Roman,serif" font-size="14.00">S12</text>
</g>
<!-- S11&#45;&gt;S12 -->
<g id="edge30" class="edge">
<title>S11&#45;&gt;S12</title>
<path fill="none" stroke="black" d="M1136.84,-438.95C1134.03,-428.14 1132.79,-414.4 1140.25,-405 1147.28,-396.13 1210.69,-383.66 1252.71,-376.24"/>
<polygon fill="black" stroke="black" points="1253.19,-379.71 1262.44,-374.55 1251.99,-372.82 1253.19,-379.71"/>
<text text-anchor="middle" x="1201.88" y="-407.45" font-family="Times New Roman,serif" font-size="14.00">startWashing|false|true</text>
</g>
<!-- S17&#45;&gt;S16 -->
<g id="edge43" class="edge">
<title>S17&#45;&gt;S16</title>
<path fill="none" stroke="black" d="M1207.16,-284.82C1166.95,-289.21 1093.76,-299.45 1075,-317.25 1058.03,-333.35 1061,-344.6 1061,-368 1061,-633.25 1061,-633.25 1061,-633.25 1061,-678.77 1005.12,-701.35 966.08,-711.58"/>
<polygon fill="black" stroke="black" points="965.44,-708.13 956.55,-713.9 967.09,-714.94 965.44,-708.13"/>
<text text-anchor="middle" x="1096.62" y="-495.2" font-family="Times New Roman,serif" font-size="14.00">stop|true|true</text>
</g>
<!-- S17&#45;&gt;S7 -->
<g id="edge5" class="edge">
<title>S17&#45;&gt;S7</title>
<path fill="none" stroke="black" d="M1243.84,-264.38C1248.95,-253.97 1253,-240.32 1247,-229.5 1241.95,-220.39 1233.44,-213.34 1224.55,-208.04"/>
<polygon fill="black" stroke="black" points="1226.35,-205.03 1215.87,-203.47 1223.09,-211.22 1226.35,-205.03"/>
<text text-anchor="middle" x="1295.12" y="-231.95" font-family="Times New Roman,serif" font-size="14.00">turnOff|true|false</text>
</g>
<!-- S17&#45;&gt;S12 -->
<g id="edge17" class="edge">
<title>S17&#45;&gt;S12</title>
<path fill="none" stroke="black" d="M1261.07,-282.52C1286.84,-284.4 1324.38,-291.72 1343,-317.25 1352.82,-330.72 1338.76,-343.68 1322.66,-353.13"/>
<polygon fill="black" stroke="black" points="1321.06,-350.01 1313.9,-357.82 1324.37,-356.18 1321.06,-350.01"/>
<text text-anchor="middle" x="1400.75" y="-319.7" font-family="Times New Roman,serif" font-size="14.00">closeDoor|true|false</text>
</g>
<!-- S0 -->
<g id="node10" class="node">
<title>S0</title>
<ellipse fill="none" stroke="black" cx="903" cy="-983.25" rx="27" ry="18"/>
<text text-anchor="middle" x="903" y="-977.83" font-family="Times New Roman,serif" font-size="14.00">S0</text>
</g>
<!-- S5 -->
<g id="node11" class="node">
<title>S5</title>
<ellipse fill="none" stroke="black" cx="903" cy="-895.5" rx="27" ry="18"/>
<text text-anchor="middle" x="903" y="-890.08" font-family="Times New Roman,serif" font-size="14.00">S5</text>
</g>
<!-- S0&#45;&gt;S5 -->
<g id="edge9" class="edge">
<title>S0&#45;&gt;S5</title>
<path fill="none" stroke="black" d="M903.6,-964.81C903.76,-959.2 903.92,-952.96 904,-947.25 904.1,-940.14 904.04,-932.46 903.91,-925.29"/>
<polygon fill="black" stroke="black" points="907.41,-925.31 903.67,-915.39 900.41,-925.47 907.41,-925.31"/>
<text text-anchor="middle" x="958" y="-933.95" font-family="Times New Roman,serif" font-size="14.00">openDoor|true|false</text>
</g>
<!-- S10 -->
<g id="node16" class="node">
<title>S10</title>
<ellipse fill="none" stroke="black" cx="1079" cy="-1071" rx="27" ry="18"/>
<text text-anchor="middle" x="1079" y="-1065.58" font-family="Times New Roman,serif" font-size="14.00">S10</text>
</g>
<!-- S0&#45;&gt;S10 -->
<g id="edge15" class="edge">
<title>S0&#45;&gt;S10</title>
<path fill="none" stroke="black" d="M920.94,-997.09C941.3,-1011.63 972.1,-1033.53 975,-1035 996.55,-1045.93 1022.27,-1054.62 1042.74,-1060.6"/>
<polygon fill="black" stroke="black" points="1041.78,-1063.97 1052.36,-1063.32 1043.68,-1057.23 1041.78,-1063.97"/>
<text text-anchor="middle" x="1020" y="-1021.7" font-family="Times New Roman,serif" font-size="14.00">turnOn|true|false</text>
</g>
<!-- S5&#45;&gt;S0 -->
<g id="edge18" class="edge">
<title>S5&#45;&gt;S0</title>
<path fill="none" stroke="black" d="M875.59,-896.46C849,-898.06 809.9,-905.14 790.5,-931.5 769.12,-960.54 824.46,-973.33 864.9,-978.69"/>
<polygon fill="black" stroke="black" points="864.24,-982.13 874.59,-979.85 865.08,-975.18 864.24,-982.13"/>
<text text-anchor="middle" x="844.75" y="-933.95" font-family="Times New Roman,serif" font-size="14.00">closeDoor|true|false</text>
</g>
<!-- S15 -->
<g id="node17" class="node">
<title>S15</title>
<ellipse fill="none" stroke="black" cx="974" cy="-807.75" rx="27" ry="18"/>
<text text-anchor="middle" x="974" y="-802.33" font-family="Times New Roman,serif" font-size="14.00">S15</text>
</g>
<!-- S5&#45;&gt;S15 -->
<g id="edge16" class="edge">
<title>S5&#45;&gt;S15</title>
<path fill="none" stroke="black" d="M923.6,-883.32C933.23,-877.28 944.25,-869.09 952,-859.5 957.56,-852.62 961.97,-844.12 965.33,-836.06"/>
<polygon fill="black" stroke="black" points="968.52,-837.53 968.75,-826.94 961.96,-835.07 968.52,-837.53"/>
<text text-anchor="middle" x="1006" y="-846.2" font-family="Times New Roman,serif" font-size="14.00">turnOn|true|false</text>
</g>
<!-- S2&#45;&gt;S7 -->
<g id="edge42" class="edge">
<title>S2&#45;&gt;S7</title>
<path fill="none" stroke="black" d="M1320.42,-123.99C1317.3,-134.98 1311.7,-148.76 1302,-157.5 1281.97,-175.55 1252.66,-184.3 1229.19,-188.53"/>
<polygon fill="black" stroke="black" points="1228.69,-185.06 1219.36,-190.08 1229.78,-191.98 1228.69,-185.06"/>
<text text-anchor="middle" x="1367" y="-144.2" font-family="Times New Roman,serif" font-size="14.00">openDoor|true|false</text>
</g>
<!-- S2&#45;&gt;S1 -->
<g id="edge11" class="edge">
<title>S2&#45;&gt;S1</title>
<path fill="none" stroke="black" d="M1297.29,-110.09C1267.92,-114.49 1219.88,-123.86 1182,-141.75 1071.78,-193.82 783.9,-446.48 698.94,-522.09"/>
<polygon fill="black" stroke="black" points="696.74,-519.35 691.61,-528.62 701.4,-524.58 696.74,-519.35"/>
<text text-anchor="middle" x="972.62" y="-319.7" font-family="Times New Roman,serif" font-size="14.00">stop|true|true</text>
</g>
<!-- S2&#45;&gt;S12 -->
<g id="edge57" class="edge">
<title>S2&#45;&gt;S12</title>
<path fill="none" stroke="black" d="M1350.81,-109.53C1423.17,-118.32 1614.35,-150.76 1573,-245.25 1549.96,-297.91 1529.38,-307.23 1478,-333 1430.26,-356.94 1368.29,-364.62 1328.82,-367.01"/>
<polygon fill="black" stroke="black" points="1328.65,-363.52 1318.84,-367.52 1329.01,-370.51 1328.65,-363.52"/>
<text text-anchor="middle" x="1622" y="-231.95" font-family="Times New Roman,serif" font-size="14.00">turnOn|true|false</text>
</g>
<!-- S8 -->
<g id="node13" class="node">
<title>S8</title>
<ellipse fill="none" stroke="black" cx="616" cy="-105.75" rx="27" ry="18"/>
<text text-anchor="middle" x="616" y="-100.33" font-family="Times New Roman,serif" font-size="14.00">S8</text>
</g>
<!-- S8&#45;&gt;S6 -->
<g id="edge12" class="edge">
<title>S8&#45;&gt;S6</title>
<path fill="none" stroke="black" d="M595.77,-117.76C572.96,-131.83 539,-158.49 539,-192.5 539,-326.12 539,-326.12 539,-326.12 539,-446.39 479.17,-502.91 555,-596.25 574.37,-620.09 609.01,-628.27 636.11,-630.81"/>
<polygon fill="black" stroke="black" points="635.84,-634.3 646.06,-631.5 636.32,-627.32 635.84,-634.3"/>
<text text-anchor="middle" x="574.62" y="-363.57" font-family="Times New Roman,serif" font-size="14.00">stop|true|true</text>
</g>
<!-- S18 -->
<g id="node14" class="node">
<title>S18</title>
<ellipse fill="none" stroke="black" cx="729" cy="-18" rx="27" ry="18"/>
<text text-anchor="middle" x="729" y="-12.57" font-family="Times New Roman,serif" font-size="14.00">S18</text>
</g>
<!-- S8&#45;&gt;S18 -->
<g id="edge37" class="edge">
<title>S8&#45;&gt;S18</title>
<path fill="none" stroke="black" d="M611.64,-87.59C609.97,-76.91 609.91,-63.44 617,-54 633.89,-31.49 665.16,-23.09 690.37,-20.11"/>
<polygon fill="black" stroke="black" points="690.67,-23.6 700.31,-19.21 690.03,-16.63 690.67,-23.6"/>
<text text-anchor="middle" x="662" y="-56.45" font-family="Times New Roman,serif" font-size="14.00">turnOn|true|false</text>
</g>
<!-- S3 -->
<g id="node19" class="node">
<title>S3</title>
<ellipse fill="none" stroke="black" cx="725" cy="-193.5" rx="27" ry="18"/>
<text text-anchor="middle" x="725" y="-188.07" font-family="Times New Roman,serif" font-size="14.00">S3</text>
</g>
<!-- S8&#45;&gt;S3 -->
<g id="edge27" class="edge">
<title>S8&#45;&gt;S3</title>
<path fill="none" stroke="black" d="M641.74,-111.59C660.78,-116.36 686.2,-125.39 703,-141.75 709.43,-148.01 714.1,-156.47 717.44,-164.69"/>
<polygon fill="black" stroke="black" points="714.11,-165.78 720.7,-174.08 720.72,-163.48 714.11,-165.78"/>
<text text-anchor="middle" x="768.75" y="-144.2" font-family="Times New Roman,serif" font-size="14.00">closeDoor|true|false</text>
</g>
<!-- S18&#45;&gt;S16 -->
<g id="edge55" class="edge">
<title>S18&#45;&gt;S16</title>
<path fill="none" stroke="black" d="M702.85,-23.14C642.96,-33.34 501,-62.04 501,-104.75 501,-282.25 501,-282.25 501,-282.25 501,-307.39 490.11,-312.19 476,-333 469.95,-341.92 465.67,-341.99 459.75,-351 443.43,-375.85 432,-382.14 432,-411.88 432,-633.25 432,-633.25 432,-633.25 432,-679.76 774.3,-708.13 890.75,-716.44"/>
<polygon fill="black" stroke="black" points="890.2,-719.91 900.42,-717.12 890.69,-712.92 890.2,-719.91"/>
<text text-anchor="middle" x="495.62" y="-363.57" font-family="Times New Roman,serif" font-size="14.00">stop|true|true</text>
</g>
<!-- S18&#45;&gt;S8 -->
<g id="edge56" class="edge">
<title>S18&#45;&gt;S8</title>
<path fill="none" stroke="black" d="M725.24,-36.04C722.05,-46.95 716.43,-60.71 707,-69.75 692.3,-83.85 671.31,-92.43 653.2,-97.56"/>
<polygon fill="black" stroke="black" points="652.38,-94.15 643.55,-100.02 654.11,-100.94 652.38,-94.15"/>
<text text-anchor="middle" x="764.12" y="-56.45" font-family="Times New Roman,serif" font-size="14.00">turnOff|true|false</text>
</g>
<!-- S13 -->
<g id="node15" class="node">
<title>S13</title>
<ellipse fill="none" stroke="black" cx="917" cy="-281.25" rx="27" ry="18"/>
<text text-anchor="middle" x="917" y="-275.82" font-family="Times New Roman,serif" font-size="14.00">S13</text>
</g>
<!-- S18&#45;&gt;S13 -->
<g id="edge13" class="edge">
<title>S18&#45;&gt;S13</title>
<path fill="none" stroke="black" d="M755.74,-21.49C785.59,-25.17 834.62,-33.92 872,-54 922.64,-81.2 941.59,-90.2 967,-141.75 1017.68,-244.56 986.08,-225.62 975,-245.25 969.65,-254.73 960.59,-261.93 951.2,-267.25"/>
<polygon fill="black" stroke="black" points="949.78,-264.05 942.4,-271.65 952.91,-270.31 949.78,-264.05"/>
<text text-anchor="middle" x="1028.75" y="-144.2" font-family="Times New Roman,serif" font-size="14.00">closeDoor|true|false</text>
</g>
<!-- S13&#45;&gt;S14 -->
<g id="edge40" class="edge">
<title>S13&#45;&gt;S14</title>
<path fill="none" stroke="black" d="M890.24,-277.83C836.22,-272.82 710.36,-260.48 605.25,-245.25 515.74,-232.28 411.25,-212.49 356.98,-201.86"/>
<polygon fill="black" stroke="black" points="357.84,-198.47 347.35,-199.97 356.49,-205.33 357.84,-198.47"/>
<text text-anchor="middle" x="667.88" y="-231.95" font-family="Times New Roman,serif" font-size="14.00">startSpinning|false|true</text>
</g>
<!-- S13&#45;&gt;S11 -->
<g id="edge22" class="edge">
<title>S13&#45;&gt;S11</title>
<path fill="none" stroke="black" d="M918.48,-299.71C920.13,-310.26 923.63,-323.45 931,-333 976.96,-392.52 1060.57,-428.38 1107.9,-444.87"/>
<polygon fill="black" stroke="black" points="1106.51,-448.1 1117.11,-447.98 1108.75,-441.46 1106.51,-448.1"/>
<text text-anchor="middle" x="1022.62" y="-363.57" font-family="Times New Roman,serif" font-size="14.00">stop|true|true</text>
</g>
<!-- S13&#45;&gt;S18 -->
<g id="edge14" class="edge">
<title>S13&#45;&gt;S18</title>
<path fill="none" stroke="black" d="M934.29,-267.39C945.45,-257.42 956.73,-243.05 950,-229.5 926.43,-182.06 887.05,-199.68 855,-157.5 825.07,-118.1 848.75,-89.22 814,-54 800.98,-40.8 782.27,-32.37 765.71,-27.1"/>
<polygon fill="black" stroke="black" points="766.73,-23.75 756.15,-24.36 764.8,-30.48 766.73,-23.75"/>
<text text-anchor="middle" x="909" y="-144.2" font-family="Times New Roman,serif" font-size="14.00">openDoor|true|false</text>
</g>
<!-- S13&#45;&gt;S3 -->
<g id="edge24" class="edge">
<title>S13&#45;&gt;S3</title>
<path fill="none" stroke="black" d="M890.28,-277.93C847.55,-273.73 766.45,-263.53 744.75,-245.25 737.81,-239.41 733.3,-230.81 730.37,-222.35"/>
<polygon fill="black" stroke="black" points="733.82,-221.7 727.77,-213.01 727.08,-223.58 733.82,-221.7"/>
<text text-anchor="middle" x="790.12" y="-231.95" font-family="Times New Roman,serif" font-size="14.00">turnOff|true|false</text>
</g>
<!-- S10&#45;&gt;S11 -->
<g id="edge29" class="edge">
<title>S10&#45;&gt;S11</title>
<path fill="none" stroke="black" d="M1105.97,-1067.43C1175.42,-1060.08 1355,-1036.06 1355,-984.25 1355,-984.25 1355,-984.25 1355,-543.5 1355,-469.62 1242.97,-457.84 1181.79,-456.91"/>
<polygon fill="black" stroke="black" points="1181.81,-453.41 1171.79,-456.86 1181.78,-460.41 1181.81,-453.41"/>
<text text-anchor="middle" x="1406.38" y="-758.45" font-family="Times New Roman,serif" font-size="14.00">fillWater|false|false</text>
</g>
<!-- S10&#45;&gt;S0 -->
<g id="edge34" class="edge">
<title>S10&#45;&gt;S0</title>
<path fill="none" stroke="black" d="M1051.79,-1069.92C998.09,-1069.13 881.56,-1064.02 856.75,-1035 846.84,-1023.4 858.39,-1010.72 872.43,-1000.93"/>
<polygon fill="black" stroke="black" points="873.98,-1004.1 880.53,-995.77 870.22,-998.19 873.98,-1004.1"/>
<text text-anchor="middle" x="902.12" y="-1021.7" font-family="Times New Roman,serif" font-size="14.00">turnOff|true|false</text>
</g>
<!-- S10&#45;&gt;S15 -->
<g id="edge51" class="edge">
<title>S10&#45;&gt;S15</title>
<path fill="none" stroke="black" d="M1099.94,-1059.01C1138.39,-1037.24 1214.19,-986 1190,-931.5 1166.42,-878.36 1143.72,-872.17 1093,-843.75 1067.38,-829.39 1035.27,-820.4 1010.87,-815.13"/>
<polygon fill="black" stroke="black" points="1011.9,-811.77 1001.4,-813.2 1010.5,-818.62 1011.9,-811.77"/>
<text text-anchor="middle" x="1248" y="-933.95" font-family="Times New Roman,serif" font-size="14.00">openDoor|true|false</text>
</g>
<!-- S15&#45;&gt;S16 -->
<g id="edge26" class="edge">
<title>S15&#45;&gt;S16</title>
<path fill="none" stroke="black" d="M965.32,-790.22C958.97,-778.12 950.23,-761.45 942.91,-747.5"/>
<polygon fill="black" stroke="black" points="946.1,-746.05 938.35,-738.82 939.9,-749.3 946.1,-746.05"/>
<text text-anchor="middle" x="1006.38" y="-758.45" font-family="Times New Roman,serif" font-size="14.00">fillWater|false|false</text>
</g>
<!-- S15&#45;&gt;S5 -->
<g id="edge28" class="edge">
<title>S15&#45;&gt;S5</title>
<path fill="none" stroke="black" d="M946.53,-808.19C918.6,-809.29 876.57,-815.88 855.75,-843.75 846.68,-855.9 857.97,-868.37 871.78,-877.92"/>
<polygon fill="black" stroke="black" points="869.91,-880.88 880.24,-883.21 873.62,-874.94 869.91,-880.88"/>
<text text-anchor="middle" x="901.12" y="-846.2" font-family="Times New Roman,serif" font-size="14.00">turnOff|true|false</text>
</g>
<!-- S15&#45;&gt;S10 -->
<g id="edge54" class="edge">
<title>S15&#45;&gt;S10</title>
<path fill="none" stroke="black" d="M1000.21,-812.97C1018.6,-817.38 1042.11,-826.23 1055,-843.75 1066.48,-859.35 1074.45,-983.82 1077.56,-1041.21"/>
<polygon fill="black" stroke="black" points="1074.06,-1041.37 1078.08,-1051.17 1081.05,-1041 1074.06,-1041.37"/>
<text text-anchor="middle" x="1125.75" y="-933.95" font-family="Times New Roman,serif" font-size="14.00">closeDoor|true|false</text>
</g>
<!-- S12&#45;&gt;S11 -->
<g id="edge21" class="edge">
<title>S12&#45;&gt;S11</title>
<path fill="none" stroke="black" d="M1286.52,-387.34C1283.44,-398.38 1277.84,-412.16 1268,-420.75 1244.11,-441.59 1208.73,-450.1 1181.7,-453.53"/>
<polygon fill="black" stroke="black" points="1181.39,-450.04 1171.82,-454.58 1182.13,-457 1181.39,-450.04"/>
<text text-anchor="middle" x="1314.62" y="-407.45" font-family="Times New Roman,serif" font-size="14.00">stop|true|true</text>
</g>
<!-- S12&#45;&gt;S17 -->
<g id="edge49" class="edge">
<title>S12&#45;&gt;S17</title>
<path fill="none" stroke="black" d="M1265.86,-360.31C1253.06,-354.86 1238.49,-346.14 1231,-333 1227.17,-326.28 1226.32,-318.21 1226.85,-310.5"/>
<polygon fill="black" stroke="black" points="1230.28,-311.21 1228.29,-300.81 1223.36,-310.18 1230.28,-311.21"/>
<text text-anchor="middle" x="1285" y="-319.7" font-family="Times New Roman,serif" font-size="14.00">openDoor|true|false</text>
</g>
<!-- S12&#45;&gt;S2 -->
<g id="edge47" class="edge">
<title>S12&#45;&gt;S2</title>
<path fill="none" stroke="black" d="M1317.21,-366.45C1360.58,-363.36 1442.29,-354.72 1460,-333 1468.87,-322.12 1513.73,-243.52 1425,-141.75 1409.18,-123.61 1383.47,-114.87 1361.95,-110.65"/>
<polygon fill="black" stroke="black" points="1362.77,-107.24 1352.32,-109.04 1361.61,-114.15 1362.77,-107.24"/>
<text text-anchor="middle" x="1523.12" y="-231.95" font-family="Times New Roman,serif" font-size="14.00">turnOff|true|false</text>
</g>
<!-- S12&#45;&gt;S13 -->
<g id="edge36" class="edge">
<title>S12&#45;&gt;S13</title>
<path fill="none" stroke="black" d="M1263.83,-363.7C1227.87,-357.64 1161.24,-345.89 1105,-333 1051.4,-320.71 990,-303.55 952.37,-292.67"/>
<polygon fill="black" stroke="black" points="953.52,-289.36 942.94,-289.93 951.56,-296.08 953.52,-289.36"/>
<text text-anchor="middle" x="1163.5" y="-319.7" font-family="Times New Roman,serif" font-size="14.00">startRinsing|false|true</text>
</g>
<!-- S3&#45;&gt;S1 -->
<g id="edge48" class="edge">
<title>S3&#45;&gt;S1</title>
<path fill="none" stroke="black" d="M698.01,-196.99C659.74,-201.14 592.68,-210.92 578,-229.5 543.09,-273.7 596.42,-297.49 614,-351 633.24,-409.56 654.83,-478.48 666.46,-515.91"/>
<polygon fill="black" stroke="black" points="662.98,-516.51 669.29,-525.02 669.67,-514.43 662.98,-516.51"/>
<text text-anchor="middle" x="661.62" y="-363.57" font-family="Times New Roman,serif" font-size="14.00">stop|true|true</text>
</g>
<!-- S3&#45;&gt;S8 -->
<g id="edge45" class="edge">
<title>S3&#45;&gt;S8</title>
<path fill="none" stroke="black" d="M698.31,-189.37C663.09,-184.63 604.01,-174.34 591,-157.5 584.58,-149.19 587.88,-138.98 593.9,-129.89"/>
<polygon fill="black" stroke="black" points="596.54,-132.2 599.94,-122.16 591.03,-127.89 596.54,-132.2"/>
<text text-anchor="middle" x="645" y="-144.2" font-family="Times New Roman,serif" font-size="14.00">openDoor|true|false</text>
</g>
<!-- S3&#45;&gt;S13 -->
<g id="edge53" class="edge">
<title>S3&#45;&gt;S13</title>
<path fill="none" stroke="black" d="M750.28,-200.11C773.52,-205.79 808.59,-215.72 837,-229.5 848.15,-234.91 849.61,-238.51 860,-245.25 868.92,-251.04 878.75,-257.16 887.7,-262.64"/>
<polygon fill="black" stroke="black" points="885.67,-265.51 896.03,-267.71 889.31,-259.53 885.67,-265.51"/>
<text text-anchor="middle" x="905" y="-231.95" font-family="Times New Roman,serif" font-size="14.00">turnOn|true|false</text>
</g>
<!-- S9&#45;&gt;S19 -->
<g id="edge52" class="edge">
<title>S9&#45;&gt;S19</title>
<path fill="none" stroke="black" d="M182.55,-18.2C125.62,-18.12 0,-26.78 0,-104.75 0,-721 0,-721 0,-721 0,-773 68.55,-793.86 113.27,-801.93"/>
<polygon fill="black" stroke="black" points="112.42,-805.34 122.86,-803.51 113.56,-798.43 112.42,-805.34"/>
<text text-anchor="middle" x="45" y="-407.45" font-family="Times New Roman,serif" font-size="14.00">turnOn|true|false</text>
</g>
<!-- S9&#45;&gt;S6 -->
<g id="edge39" class="edge">
<title>S9&#45;&gt;S6</title>
<path fill="none" stroke="black" d="M211.91,-36.43C215.16,-63.06 222.83,-115.23 237,-157.5 264.6,-239.81 275.74,-260.02 322.75,-333 404.89,-460.53 412.06,-514.74 540,-596.25 569.34,-614.95 608.28,-623.68 636.8,-627.75"/>
<polygon fill="black" stroke="black" points="636.07,-631.18 646.44,-628.98 636.96,-624.24 636.07,-631.18"/>
<text text-anchor="middle" x="358.62" y="-319.7" font-family="Times New Roman,serif" font-size="14.00">stop|true|true</text>
</g>
<!-- S9&#45;&gt;S4 -->
<g id="edge35" class="edge">
<title>S9&#45;&gt;S4</title>
<path fill="none" stroke="black" d="M217.44,-35.36C223.31,-46.54 232.5,-60.89 244.5,-69.75 266.63,-86.11 296.53,-94.92 320.09,-99.61"/>
<polygon fill="black" stroke="black" points="319.46,-103.06 329.93,-101.38 320.71,-96.17 319.46,-103.06"/>
<text text-anchor="middle" x="299.75" y="-56.45" font-family="Times New Roman,serif" font-size="14.00">closeDoor|true|false</text>
</g>
</g>
</svg>
